<svg xmlns="http://www.w3.org/2000/svg" width="316" height="396" viewBox="0 0 316 396"><rect width="100%" height="100%" fill="#908c8f"/><path fill="#ffff" d="m67.53 191.76-2.73-.48q.32-2.19 1.22-3.84.9-1.64 2.26-2.75 1.35-1.1 3.11-1.66 1.75-.55 3.76-.55 2.1 0 3.8.6 1.69.59 2.88 1.66 1.2 1.06 1.84 2.48.64 1.43.64 3.09 0 1.45-.32 2.55-.33 1.11-.94 1.92-.61.82-1.51 1.39t-2.04.94q2.73.87 4.08 2.63 1.34 1.76 1.34 4.43 0 2.27-.84 4.01-.84 1.74-2.27 2.93-1.43 1.19-3.31 1.8-1.88.61-3.98.61-2.28 0-3.99-.53-1.7-.52-2.96-1.55t-2.14-2.52q-.88-1.49-1.51-3.45l2.29-.94q.9-.38 1.69-.2.79.18 1.14.85.38.73.83 1.45.45.71 1.08 1.27.63.55 1.49.9.85.35 2.02.35 1.32 0 2.31-.43t1.65-1.13q.66-.69.99-1.54.32-.85.32-1.71 0-1.09-.23-1.99-.23-.89-.96-1.52-.74-.63-2.11-.99-1.38-.35-3.69-.35v-3.7q1.91-.02 3.17-.36 1.26-.33 2.01-.93.74-.6 1.04-1.44.29-.84.29-1.85 0-2.14-1.2-3.25-1.19-1.11-3.19-1.11-.92 0-1.7.26-.78.26-1.4.73-.62.48-1.04 1.11-.42.63-.63 1.38-.35.97-.93 1.28-.58.32-1.63.15Zm35.64 17.53h5.46v3.89h-16.8v-3.89h6.15v-17.7q0-1.05.06-2.16l-4.36 3.65q-.38.3-.75.37t-.69.01q-.33-.06-.58-.22-.25-.16-.38-.35l-1.64-2.24 9.27-7.88h4.26v26.52Zm28.05-26.48-9 11.03-1.05 1.3q.88-.44 1.9-.68 1.01-.24 2.19-.24 1.72 0 3.35.56 1.63.57 2.87 1.72 1.24 1.14 1.99 2.84.76 1.7.76 3.97 0 2.12-.78 3.98-.78 1.86-2.18 3.24-1.41 1.39-3.39 2.19-1.99.8-4.38.8-2.44 0-4.37-.78-1.93-.78-3.3-2.17-1.36-1.4-2.09-3.36-.72-1.97-.72-4.36 0-2.14.87-4.4.87-2.26 2.7-4.7l7.24-9.72q.38-.5 1.11-.86.72-.36 1.66-.36h4.62Zm-7.83 26.46q1.24 0 2.28-.42 1.04-.42 1.79-1.17.74-.76 1.16-1.78.42-1.01.42-2.21 0-1.3-.4-2.34-.4-1.04-1.13-1.77-.74-.72-1.77-1.1-1.03-.38-2.26-.38-1.24 0-2.25.42t-1.72 1.17q-.72.74-1.12 1.76-.4 1.02-.4 2.2 0 1.26.35 2.3.35 1.03 1.03 1.77.68.73 1.69 1.14 1.01.41 2.33.41Zm44.52-3.04-2.75 2.71-7.12-7.12-7.18 7.16-2.75-2.71 7.18-7.2-6.85-6.85 2.73-2.73 6.85 6.85 6.8-6.81 2.78 2.73-6.83 6.83 7.14 7.14Zm17.47-14.47-2.73-.48q.32-2.19 1.22-3.84.9-1.64 2.26-2.75 1.35-1.1 3.11-1.66 1.75-.55 3.77-.55 2.1 0 3.79.6 1.69.59 2.88 1.66 1.2 1.06 1.84 2.48.64 1.43.64 3.09 0 1.45-.32 2.55-.33 1.11-.94 1.92-.61.82-1.51 1.39t-2.04.94q2.73.87 4.08 2.63 1.34 1.76 1.34 4.43 0 2.27-.84 4.01-.84 1.74-2.27 2.93-1.42 1.19-3.3 1.8-1.88.61-3.98.61-2.29 0-3.99-.53-1.7-.52-2.96-1.55t-2.15-2.52q-.88-1.49-1.51-3.45l2.29-.94q.9-.38 1.69-.2.79.18 1.15.85.37.73.83 1.45.45.71 1.08 1.27.63.55 1.48.9t2.02.35q1.33 0 2.31-.43.99-.43 1.65-1.13.66-.69.99-1.54.32-.85.32-1.71 0-1.09-.23-1.99-.23-.89-.96-1.52-.74-.63-2.11-.99-1.38-.35-3.69-.35v-3.7q1.91-.02 3.17-.36 1.26-.33 2.01-.93.74-.6 1.04-1.44.29-.84.29-1.85 0-2.14-1.2-3.25-1.19-1.11-3.19-1.11-.92 0-1.7.26-.78.26-1.39.73-.62.48-1.04 1.11-.42.63-.63 1.38-.36.97-.94 1.28-.58.32-1.63.15Zm26.3.17q0 2.54 1.31 3.87 1.31 1.34 3.73 1.34 1.26 0 2.24-.4.99-.4 1.66-1.1.67-.69 1.02-1.63.35-.95.35-2.04 0-1.24-.38-2.22-.38-.97-1.07-1.64-.7-.68-1.65-1.03-.96-.36-2.09-.36-1.18 0-2.12.39-.95.39-1.62 1.08-.67.69-1.03 1.65-.35.95-.35 2.09Zm-2.55 21.25 9.43-11.78q.36-.44.68-.86.31-.42.6-.84-1.05.67-2.31 1.02-1.26.34-2.64.34-1.58 0-3.09-.54-1.51-.55-2.69-1.65-1.17-1.1-1.9-2.73-.72-1.63-.72-3.81 0-2.04.75-3.83.76-1.78 2.13-3.12 1.36-1.35 3.27-2.13 1.91-.77 4.22-.77 2.33 0 4.19.73 1.86.74 3.17 2.06 1.32 1.32 2.02 3.17.7 1.85.7 4.05 0 1.41-.24 2.67t-.68 2.43q-.44 1.16-1.07 2.28-.63 1.11-1.41 2.2l-6.95 9.91q-.36.51-1.07.85-.72.35-1.62.35h-4.77Zm39.95-30.37-9.01 11.03-1.05 1.3q.88-.44 1.9-.68 1.02-.24 2.19-.24 1.72 0 3.35.56 1.63.57 2.87 1.72 1.24 1.14 1.99 2.84.76 1.7.76 3.97 0 2.12-.78 3.98-.77 1.86-2.18 3.24-1.41 1.39-3.39 2.19-1.99.8-4.38.8-2.44 0-4.37-.78-1.93-.78-3.3-2.17-1.36-1.4-2.09-3.36-.72-1.97-.72-4.36 0-2.14.87-4.4.87-2.26 2.7-4.7l7.25-9.72q.37-.5 1.1-.86.72-.36 1.67-.36h4.62Zm-7.84 26.46q1.24 0 2.28-.42 1.04-.42 1.79-1.17.74-.76 1.16-1.78.42-1.01.42-2.21 0-1.3-.4-2.34-.4-1.04-1.13-1.77-.73-.72-1.76-1.1-1.03-.38-2.27-.38t-2.25.42q-1.01.42-1.72 1.17-.72.74-1.11 1.76-.4 1.02-.4 2.2 0 1.26.34 2.3.35 1.03 1.03 1.77.69.73 1.69 1.14 1.01.41 2.33.41Z"/></svg>